<?xml version="1.0" encoding="UTF-8"?><svg id="Layer_2" xmlns="http://www.w3.org/2000/svg" viewBox="0 0 348.73 126.9"><defs><style>.cls-1{fill:#fff;}</style></defs><path class="cls-1" d="M164.58,16.19h7.64l14.66,34.21h.12l14.79-34.21h7.45v43.63h-5.13V23.21h-.12l-15.52,36.61h-3.12l-15.52-36.61h-.12v36.61h-5.13V16.19Z"/><path class="cls-1" d="M252.44,43.18c0,9.49-4.4,17.75-16.31,17.75s-16.31-8.26-16.31-17.75v-26.99h5.13v26.25c0,7.03,2.57,13.68,11.18,13.68s11.18-6.66,11.18-13.68v-26.25h5.13v26.99Z"/><path class="cls-1" d="M283.54,23.89c-1.71-2.77-4.77-4.01-7.88-4.01-4.52,0-9.23,2.16-9.23,7.33,0,4.01,2.2,5.79,9.1,8.01,6.72,2.16,12.95,4.38,12.95,12.94s-7.39,12.76-15.21,12.76c-5.01,0-10.39-1.66-13.32-6.04l4.4-3.64c1.83,3.2,5.5,4.87,9.23,4.87,4.4,0,9.41-2.59,9.41-7.58,0-5.36-3.6-6.29-11.3-8.88-6.11-2.03-10.75-4.75-10.75-12.02,0-8.38,7.15-12.57,14.72-12.57,4.83,0,8.92,1.36,12.1,5.12l-4.21,3.7Z"/><path class="cls-1" d="M296.98,16.19h5.13v43.63h-5.13V16.19Z"/><path class="cls-1" d="M343.17,25.18c-2.57-3.51-6.66-5.3-10.81-5.3-9.65,0-16.5,8.57-16.5,18.12,0,10.11,6.78,18.12,16.5,18.12,5.25,0,9.47-2.16,12.52-6.1l3.85,3.27c-3.85,5.24-9.47,7.64-16.37,7.64-12.4,0-22-9.68-22-22.93s9.17-22.93,22-22.93c5.87,0,11.61,2.03,15.27,6.84l-4.46,3.27Z"/><path class="cls-1" d="M162.25,69.06h15.43v2.73h-12.52v7.76h11.69v2.73h-11.69v8.81h13.15v2.73h-16.06v-24.76Z"/><path class="cls-1" d="M188.61,80.78l-8.25-11.72h3.75l6.62,9.69,6.55-9.69h3.64l-8.25,11.72,9.05,13.04h-3.85l-7.28-10.98-7.32,10.98h-3.61l8.95-13.04Z"/><path class="cls-1" d="M221.87,74.17c-1.46-1.99-3.78-3.01-6.14-3.01-5.48,0-9.36,4.86-9.36,10.28,0,5.74,3.85,10.28,9.36,10.28,2.98,0,5.38-1.22,7.11-3.46l2.18,1.85c-2.18,2.97-5.38,4.34-9.29,4.34-7.04,0-12.49-5.49-12.49-13.01s5.2-13.01,12.49-13.01c3.33,0,6.59,1.15,8.67,3.88l-2.53,1.85Z"/><path class="cls-1" d="M229.08,69.06h2.91v10.49h13.11v-10.49h2.91v24.76h-2.91v-11.54h-13.11v11.54h-2.91v-24.76Z"/><path class="cls-1" d="M262.09,69.06h2.74l10.44,24.76h-3.4l-2.5-6.09h-12.28l-2.53,6.09h-3.29l10.82-24.76ZM263.41,72.84h-.07l-5.1,12.17h10.02l-4.86-12.17Z"/><path class="cls-1" d="M278.53,69.06h3.68l14.22,20.56h.07v-20.56h2.91v24.76h-3.68l-14.22-20.56h-.07v20.56h-2.91v-24.76Z"/><path class="cls-1" d="M326.39,92.14c-2.81,1.57-6,2.31-9.19,2.31-7.63,0-13.11-5.25-13.11-13.01s5.86-13.01,13.21-13.01c3.23,0,6.35.87,8.67,3.25l-2.19,2.31c-1.67-1.82-4.2-2.83-6.69-2.83-5.62,0-9.88,4.27-9.88,10.28s4.13,10.28,10.16,10.28c1.98,0,4.3-.52,6.1-1.43v-7.59h-5.65v-2.73h8.57v12.17Z"/><path class="cls-1" d="M332.49,69.06h15.43v2.73h-12.52v7.76h11.69v2.73h-11.69v8.81h13.14v2.73h-16.06v-24.76Z"/><path class="cls-1" d="M125.57,15.08c2.28-.22-.09,3.05-1.25,4.51-.14.18.06.41.26.31,1.87-.95,6.38-3.88,7.97-10.51.67-2.79-.73-8.04-5.46-2.8-6.06,6.71-4.45,8.77-1.52,8.49Z"/><path class="cls-1" d="M71.48,99.5c-10.7-8.14-39.43-20.55-48.7-24.45-1.32-.56-1.57-2.31-.47-3.22,11.16-9.23,55.98-47.91,42.78-63.2C52.48-5.96,39.39-4.87.04,34.2c-.56,6.98,5.3,9.77,5.3,9.77v24.46s-4.19.22-4.19,9.06c0,7.9,4.19,8.9,4.19,8.9v36.37c0,.67.77,1.05,1.3.63,1.25-1.39,2.89-2.95,4.99-4.42,1.03-.72,2.04-1.33,2.98-1.84.14-.11.39-.34.58-.7.14-.27.21-.57.22-.88l.71-25.94s17.42,1.15,34.44,12.31c17.02,9.63,21.76,15.44,25.79,18.88s10.19,1.04,10.19-3.98c0-2.97-2.23-7.53-15.07-17.3ZM15.47,60.93v-29.28S50-.76,54.36,15.08c4.14,15.06-38.89,45.85-38.89,45.85Z"/><path class="cls-1" d="M157.38,31.79c-2.72-2.72-2.09,7.12-11.65,11.58-9.56,4.47,3.89-3.7,3.7-15.49-.08-4.7-5.44-17.98-10.68-17.41-3.1.34-2.78,3.95-1.44,7.96-.05-.03-.09-.05-.14-.08-2.92,7.2-6.26,14.78-10.09,22.63-3.69,7.56-7.44,14.6-11.17,21.12-.17,0-.75.1-.71-.21.71-5.26,2.54-18.11,3.99-22.93.94-3.11,3.69-11.77-1.23-13.13-4.92-1.36-3.41,7.15-9.66,19.83-3.66,7.43-8.58,13.78-10.36,12.14-3.07-2.83,3.14-13.91,4.81-18,3.03-7.43,1.66-10.22-1.38-9.87-4.29.49-10.77,16.12-9.71,26.72-1.9,3.86-5.27,9.26-9.42,9.52-5.72.37-2.49-13.25-1.65-16.48.11-.43-.02-.87-.34-1.18l-3.78-3.61c-.13-.13-.1-.35.07-.42.9-.38,3.02-1.62,1.51-4.47-1.88-3.56-5.23-3.56-8.58,0-3.35,3.56-16.53,15.28-17.99,27.31-1.33,10.91,5.64,14.08,9.41,14.22,6.17.22,11.51-11.6,12.35-17.88.84-6.28-2.29,14.65,5.34,15.07,5.5.3,10.73-13.31,13.23-20.94.42,2.63,1.35,4.88,2.99,6.39,9.03,8.35,12.03-6.59,17.12-12.48.11-.13.3-.11.27.06l-4.01,28.04c-.33,2.29.46,4.59,2.11,6.21l.59.58c.73.71,1.94.4,2.24-.57,2.95-9.77,6.44-20.08,10.56-30.83,1.38-3.6,2.78-7.11,4.2-10.54.51,2.42,2.01,5.21,4.38,6.25,3.49,1.53,8.83,3.8,16.05-1.95,4.47-3.56,10.6-15.63,9.07-17.16ZM59.85,73.61c-6.77-4.14,9.59-22.37,13-26.04.17-.19.48-.03.43.22-1.05,5.01-6.64,29.97-13.43,25.82ZM138.82,42.67c-4.05.21-1.53-1.12-2.93-1.88-.96-.53-4.09-1.02-6.18-.51,2.84-6.69,5.74-13.04,8.64-19.06,1.03,2.5,2.23,4.9,3.05,6.53,2.44,4.88,1.47,14.72-2.58,14.93Z"/><rect class="cls-1" x="162.25" y="104" width="186.48" height="4.19"/><path class="cls-1" d="M116.15,117.98h1.21l-1.1,7.79h4.1l-.16,1.13h-5.31l1.26-8.92Z"/><path class="cls-1" d="M121.51,122.44c.37-2.65,2.58-4.69,5.31-4.69s4.36,2.04,4,4.69c-.38,2.65-2.6,4.69-5.32,4.69s-4.36-2.04-3.98-4.69ZM129.52,122.44c.28-1.95-.83-3.55-2.87-3.55s-3.58,1.6-3.86,3.55.82,3.55,2.86,3.55,3.59-1.6,3.87-3.55Z"/><path class="cls-1" d="M133.18,117.98h1.59l3.88,7.34h.02l1.03-7.34h1.21l-1.26,8.92h-1.54l-3.93-7.34h-.02l-1.03,7.34h-1.21l1.26-8.92Z"/><path class="cls-1" d="M143.01,117.98h3.11c3.77,0,4.29,2.81,4.06,4.46-.33,2.28-2.33,4.46-5.52,4.46h-2.91l1.26-8.92ZM143.13,125.77h1.52c2.04,0,3.93-1.12,4.25-3.33.15-1.13-.13-3.33-3.02-3.33h-1.81l-.93,6.65Z"/><path class="cls-1" d="M151.37,122.44c.37-2.65,2.58-4.69,5.31-4.69s4.36,2.04,4,4.69c-.38,2.65-2.6,4.69-5.32,4.69s-4.36-2.04-3.98-4.69ZM159.39,122.44c.28-1.95-.83-3.55-2.87-3.55s-3.58,1.6-3.86,3.55.82,3.55,2.86,3.55,3.59-1.6,3.87-3.55Z"/><path class="cls-1" d="M163.04,117.98h1.59l3.88,7.34h.02l1.03-7.34h1.21l-1.26,8.92h-1.54l-3.93-7.34h-.02l-1.03,7.34h-1.21l1.26-8.92Z"/><path class="cls-1" d="M178.02,120.21c1.23,0,2.09,1,1.92,2.23-.18,1.24-1.31,2.23-2.55,2.23s-2.09-1-1.92-2.23c.18-1.23,1.31-2.23,2.55-2.23Z"/><path class="cls-1" d="M186.14,117.98h3.1c1.55,0,2.6.72,2.39,2.23-.15,1.02-.87,1.66-1.81,1.97v.03c1.06.08,1.78,1.02,1.61,2.22-.23,1.6-1.75,2.48-3.49,2.48h-3.06l1.26-8.92ZM186.24,125.84h1.78c.73,0,1.97-.25,2.14-1.51.14-1.06-.53-1.59-1.7-1.59h-1.79l-.43,3.1ZM186.82,121.69h1.65c.92,0,1.71-.37,1.85-1.34.1-.71-.25-1.31-1.22-1.31h-1.9l-.38,2.65Z"/><path class="cls-1" d="M194.08,117.98h5.76l-.16,1.13h-4.55l-.38,2.66h4.24l-.15,1.13h-4.24l-.4,2.86h4.78l-.16,1.13h-5.99l1.26-8.92Z"/><path class="cls-1" d="M201.79,117.98h3.14c2.28,0,2.66,1.37,2.51,2.5-.16,1.13-1.16,2.21-2.53,2.36l1.97,4.07h-1.51l-1.71-3.93h-1.35l-.55,3.93h-1.21l1.26-8.92ZM202.44,121.91h1.59c.96,0,1.94-.23,2.12-1.44.16-1.21-.76-1.44-1.71-1.44h-1.59l-.4,2.87Z"/><path class="cls-1" d="M209.49,117.98h1.21l-1.1,7.79h4.1l-.16,1.13h-5.31l1.26-8.92Z"/><path class="cls-1" d="M216.03,117.98h1.21l-1.26,8.92h-1.21l1.26-8.92Z"/><path class="cls-1" d="M219.54,117.98h1.59l3.88,7.34h.03l1.03-7.34h1.21l-1.26,8.92h-1.54l-3.93-7.34h-.03l-1.03,7.34h-1.21l1.26-8.92Z"/><path class="cls-1" d="M234.51,120.21c1.23,0,2.09,1,1.92,2.23-.18,1.24-1.31,2.23-2.55,2.23s-2.09-1-1.92-2.23c.18-1.23,1.31-2.23,2.55-2.23Z"/><path class="cls-1" d="M248.57,119.91c-.42-.66-1.2-1.02-2.02-1.02-2,0-3.54,1.6-3.83,3.63-.26,1.88.76,3.48,2.84,3.48,1.02,0,1.87-.45,2.5-1.2l.92.77c-.32.37-1.56,1.56-3.6,1.56-2.84,0-4.25-2.37-3.93-4.61.39-2.77,2.57-4.76,5.32-4.76,1.17,0,2.34.44,2.94,1.39l-1.12.77Z"/><path class="cls-1" d="M254.31,117.98h1.1l2.56,8.92h-1.41l-.58-2.21h-4.25l-1.2,2.21h-1.41l5.19-8.92ZM255.67,123.64l-1.08-4.1h-.03l-2.27,4.1h3.38Z"/><path class="cls-1" d="M260.38,117.98h1.21l-1.1,7.79h4.1l-.16,1.13h-5.31l1.26-8.92Z"/><path class="cls-1" d="M267.97,117.98l-.77,5.47c-.16,1.11.19,2.55,1.88,2.55s2.45-1.44,2.61-2.55l.77-5.47h1.21l-.81,5.66c-.29,2.07-1.99,3.49-3.95,3.49s-3.25-1.42-2.96-3.49l.81-5.66h1.21Z"/><path class="cls-1" d="M275.71,117.98h1.8l1.88,6.76h.05l3.77-6.76h1.8l-1.26,8.92h-1.21l1.03-7.34h-.03l-4.04,7.34h-.81l-1.98-7.34h-.03l-1.03,7.34h-1.21l1.26-8.92Z"/><path class="cls-1" d="M287.22,117.98h5.76l-.16,1.13h-4.55l-.38,2.66h4.24l-.15,1.13h-4.24l-.4,2.86h4.78l-.16,1.13h-5.99l1.26-8.92Z"/><path class="cls-1" d="M296.63,119.11h-2.87l.16-1.13h6.96l-.16,1.13h-2.87l-1.1,7.79h-1.21l1.1-7.79Z"/><path class="cls-1" d="M311.6,119.91c-.42-.66-1.2-1.02-2.02-1.02-2,0-3.54,1.6-3.83,3.63-.26,1.88.76,3.48,2.84,3.48,1.02,0,1.87-.45,2.5-1.2l.92.77c-.32.37-1.56,1.56-3.6,1.56-2.84,0-4.25-2.37-3.93-4.61.39-2.77,2.57-4.76,5.32-4.76,1.17,0,2.34.44,2.94,1.39l-1.12.77Z"/><path class="cls-1" d="M314.54,117.98h1.21l-1.26,8.92h-1.21l1.26-8.92Z"/><path class="cls-1" d="M319.75,119.11h-2.87l.16-1.13h6.96l-.16,1.13h-2.87l-1.1,7.79h-1.21l1.1-7.79Z"/><path class="cls-1" d="M326.66,123.1l-2.65-5.12h1.55l1.88,3.92,3.06-3.92h1.47l-4.11,5.12-.53,3.81h-1.21l.53-3.81Z"/></svg>